<?xml version="1.0" encoding="UTF-8" standalone="no"?><!-- Generator: Gravit.io --><svg xmlns="http://www.w3.org/2000/svg" xmlns:xlink="http://www.w3.org/1999/xlink" style="isolation:isolate" viewBox="0 0 16 16" width="16pt" height="16pt"><defs><clipPath id="_clipPath_VF14lz0IMLbzdTOeAAyv9UmFeUHMIpRm"><rect width="16" height="16"/></clipPath></defs><g clip-path="url(#_clipPath_VF14lz0IMLbzdTOeAAyv9UmFeUHMIpRm)"><g style="isolation:isolate"/><g style="isolation:isolate"><path d=" M 14.15 11.57 L 14.15 11.57 L 14.15 7.998 L 14.15 4.424 L 11.055 2.637 L 7.96 0.85 L 4.865 2.637 L 1.77 4.424 L 1.77 7.998 L 1.77 11.433 L 6 3.171 L 6.2 3.165 L 7.95 6.4 L 8.05 6.4 L 9.8 3.159 L 10 3.156 L 14.1 11.57 L 14.15 11.57 Z  M 13.074 12.193 L 11.055 13.358 L 7.96 15.145 L 4.865 13.358 L 2.776 12.152 L 6 5.233 L 6.2 5.23 L 7.5 7.7 L 7.5 7.8 L 5.7 11.887 L 5.8 12.018 L 7 13 L 9 13 L 10.2 12.018 L 10.3 11.907 L 8.5 7.8 L 8.5 7.7 L 9.8 5.194 L 9.8 5.194 L 10 5.193 L 13.074 12.193 Z  M 14.928 12.062 L 11.446 14.073 L 7.964 16.083 L 4.482 14.073 L 1 12.062 L 1 8.041 L 1 4.021 L 4.482 2.01 L 7.964 0 L 11.446 2.01 L 14.928 4.021 L 14.928 8.041 L 14.928 12.062 L 14.928 12.062 Z  M 6.75 11.6 L 7.95 9 L 8.05 9 L 9.2 11.6 L 8.5 12.2 L 7.5 12.2 L 6.75 11.6 L 6.75 11.6 Z " fill-rule="evenodd" fill="rgb(234,237,232)"/></g></g></svg>