<?xml version="1.0" encoding="UTF-8" standalone="no"?><!-- Generator: Gravit.io --><svg xmlns="http://www.w3.org/2000/svg" xmlns:xlink="http://www.w3.org/1999/xlink" style="isolation:isolate" viewBox="0 0 16 16" width="16pt" height="16pt"><defs><clipPath id="_clipPath_OyvIWXSM3UpRuws0VeUgUjJhBZT4JNyt"><rect width="16" height="16"/></clipPath></defs><g clip-path="url(#_clipPath_OyvIWXSM3UpRuws0VeUgUjJhBZT4JNyt)"><g style="isolation:isolate"><polygon points="14.964,12.062,8,16.083,1.036,12.062,1.036,4.021,8,0,14.964,4.021" fill="rgb(202,210,197)"/><polygon points="14.318,11.648,8,15.295,1.682,11.648,1.682,4.352,8,0.705,14.318,4.352" fill="rgb(47,62,70)"/></g><g style="isolation:isolate"><g><path d=" M 7.84 8.34 L 8.69 10.21 L 7 10.21 L 7.84 8.34 Z  M 8.27 6.65 L 10.35 11.13 L 9.68 11.13 L 6.35 11.13 L 5.33 11.13 L 7.41 6.65 L 6.51 4.64 L 2.95 12.74 L 2.18 11.97 L 6.51 2.85 L 7.84 5.73 L 9.18 2.84 L 13.82 11.97 L 13.04 12.74 L 9.17 4.65 L 8.27 6.65 Z " fill-rule="evenodd" fill="rgb(202,210,197)"/></g><mask id="_mask_aAPRXrmittsDFSy794FFUzkvkhKw8ews"><polygon points="7.816,7.4,9.182,10.4,6.45,10.4" fill="white" stroke="none"/></mask><polygon points="7.816,7.4,9.182,10.4,6.45,10.4" fill="none"/><polygon points="7.816,7.4,9.182,10.4,6.45,10.4" fill="none" mask="url(#_mask_aAPRXrmittsDFSy794FFUzkvkhKw8ews)" vector-effect="non-scaling-stroke" stroke-width="2" stroke="rgb(47,62,70)" stroke-linejoin="miter" stroke-linecap="square" stroke-miterlimit="3"/></g></g></svg>