<svg fill="#000000" xmlns="http://www.w3.org/2000/svg"  viewBox="0 0 24 24" width="24px" height="24px"><path d="M 11.5 2 C 8.416 2 6 5.5822969 6 10.154297 C 6 12.224297 6.5020781 14.081906 7.3300781 15.503906 C 7.2830781 15.662906 7.25 15.826 7.25 16 C 7.25 16.966 8.034 17.75 9 17.75 C 9.966 17.75 10.75 16.966 10.75 16 C 10.75 15.034 9.966 14.25 9 14.25 C 8.976 14.25 8.9536875 14.256813 8.9296875 14.257812 C 8.3596875 13.159813 8 11.719297 8 10.154297 C 8 6.8182969 9.603 4 11.5 4 C 12.662 4 13.711563 5.0585313 14.351562 6.6445312 C 14.481563 6.9655312 14.752797 7.2014375 15.091797 7.2734375 C 15.100797 7.2754375 15.108188 7.2763437 15.117188 7.2773438 C 15.878187 7.4423438 16.523375 6.6751719 16.234375 5.9511719 C 15.285375 3.5671719 13.54 2 11.5 2 z M 11.375 8.5 C 10.409 8.5 9.625 9.284 9.625 10.25 C 9.625 11.216 10.409 12 11.375 12 C 12.062 12 12.6505 11.601391 12.9375 11.025391 C 14.2305 11.083391 15.669344 11.458359 17.027344 12.193359 C 18.987344 13.255359 20.465813 14.885219 20.882812 16.449219 C 21.097812 17.252219 21.021156 17.957922 20.660156 18.544922 C 19.998156 19.621922 18.486703 20.103516 16.720703 19.978516 C 16.434703 19.958516 16.157219 20.051047 15.949219 20.248047 C 15.943219 20.254047 15.937641 20.259625 15.931641 20.265625 C 15.315641 20.844625 15.652141 21.907516 16.494141 21.978516 C 16.744141 21.998516 16.990375 22 17.234375 22 C 19.468375 22 21.383281 21.184797 22.363281 19.591797 C 23.016281 18.532797 23.171453 17.268594 22.814453 15.933594 C 22.250453 13.826594 20.441516 11.769547 17.978516 10.435547 C 16.179516 9.4605469 14.307281 9.0066719 12.613281 9.0136719 C 12.296281 8.6956719 11.859 8.5 11.375 8.5 z M 3.4238281 12.769531 C 3.1634023 12.776 2.9033906 12.884906 2.7128906 13.113281 C 1.9768906 13.997281 1.4475 14.959594 1.1875 15.933594 C 0.8305 17.268594 0.98471875 18.533797 1.6367188 19.591797 C 2.6157188 21.184797 4.530625 22 6.765625 22 C 8.457625 22 10.333 21.536453 12.125 20.564453 C 13.835 19.638453 15.216656 18.362844 16.097656 16.964844 C 16.897656 16.803844 17.5 16.097 17.5 15.25 C 17.5 14.284 16.716 13.5 15.75 13.5 C 14.784 13.5 14 14.284 14 15.25 C 14 15.576 14.095953 15.878625 14.251953 16.140625 C 13.544953 17.155625 12.468828 18.105641 11.173828 18.806641 C 8.0548281 20.495641 4.4658438 20.374969 3.3398438 18.542969 C 2.9788438 17.955969 2.9041406 17.252219 3.1191406 16.449219 C 3.3001406 15.773219 3.6828437 15.084547 4.2148438 14.435547 C 4.4228438 14.181547 4.502875 13.855109 4.421875 13.537109 C 4.419875 13.529109 4.4160625 13.520672 4.4140625 13.513672 C 4.2928125 13.033047 3.8578711 12.75875 3.4238281 12.769531 z"/></svg>