<?xml version="1.0" encoding="UTF-8" standalone="no"?><!-- Generator: Gravit.io --><svg xmlns="http://www.w3.org/2000/svg" xmlns:xlink="http://www.w3.org/1999/xlink" style="isolation:isolate" viewBox="0 0 16 16" width="16pt" height="16pt"><defs><clipPath id="_clipPath_OLszKk3td6haiWuHP9RTxgN1MdnOEpYO"><rect width="16" height="16"/></clipPath></defs><g clip-path="url(#_clipPath_OLszKk3td6haiWuHP9RTxgN1MdnOEpYO)"><g style="isolation:isolate"><polygon points="14.964,12.062,8,16.083,1.036,12.062,1.036,4.021,8,0,14.964,4.021" fill="rgb(202,210,197)"/><polygon points="14.318,11.648,8,15.295,1.682,11.648,1.682,4.352,8,0.705,14.318,4.352" fill="rgb(47,62,70)"/></g><g style="isolation:isolate"><g><path d=" M 5.099 11.281 L 9.176 2.5 L 14 12 L 13 13 L 9.176 5.009 L 6.353 11.281 L 5.099 11.281 Z " fill="rgb(202,210,197)"/><path d=" M 5.778 10.363 L 5.778 11.281 L 9.678 11.281 L 9.678 10.363 L 5.778 10.363 Z " fill="rgb(202,210,197)"/><path d=" M 2 12 L 6.51 2.5 L 10.587 11.281 L 9.333 11.281 L 6.51 5.009 L 3 13 L 2 12 Z " fill="rgb(202,210,197)"/></g></g></g></svg>