<?xml version="1.0" encoding="UTF-8" standalone="no"?><!-- Generator: Gravit.io --><svg xmlns="http://www.w3.org/2000/svg" xmlns:xlink="http://www.w3.org/1999/xlink" style="isolation:isolate" viewBox="0 0 16 16" width="16pt" height="16pt"><defs><clipPath id="_clipPath_lryg3icnTmmsUVidTvakcTpfHZwAI1en"><rect width="16" height="16"/></clipPath></defs><g clip-path="url(#_clipPath_lryg3icnTmmsUVidTvakcTpfHZwAI1en)"><g style="isolation:isolate"><polygon points="14.964,12.062,8,16.083,1.036,12.062,1.036,4.021,8,0,14.964,4.021" fill="rgb(251,184,97)"/><polygon points="13.636,11.295,8,14.549,2.364,11.295,2.364,4.787,8,1.534,13.636,4.787" fill="rgb(10,25,48)"/></g><g style="isolation:isolate"><path d=" M 5.099 11.281 L 9.176 2.5 L 14 12 L 12.312 11.281 L 9.176 5.009 L 6.353 11.281 L 5.099 11.281 Z " fill="rgb(251,184,97)"/><path d=" M 5.778 10.363 L 5.778 11.281 L 9.678 11.281 L 9.678 10.363 L 5.778 10.363 Z " fill="rgb(251,184,97)"/><path d=" M 2.433 11.854 L 2.433 12.795 L 13.567 12.795 L 13.567 11.854 L 2.433 11.854 Z " fill="rgb(251,184,97)"/><path d=" M 2 12 L 6.51 2.5 L 10.587 11.281 L 9.333 11.281 L 6.51 5.009 L 3.677 11.298 L 2 12 Z " fill="rgb(251,184,97)"/></g></g></svg>