<?xml version="1.0" encoding="UTF-8" standalone="no"?><!-- Generator: Gravit.io --><svg xmlns="http://www.w3.org/2000/svg" xmlns:xlink="http://www.w3.org/1999/xlink" style="isolation:isolate" viewBox="0 0 16 16" width="16pt" height="16pt"><defs><clipPath id="_clipPath_8DSdK6s3ygQe1EHxEKGLn9UjeHN3eYc4"><rect width="16" height="16"/></clipPath></defs><g clip-path="url(#_clipPath_8DSdK6s3ygQe1EHxEKGLn9UjeHN3eYc4)"><g style="isolation:isolate"/><g style="isolation:isolate"><path d=" M 14.06 11.572 L 14.06 11.572 L 14.06 7.998 L 14.06 4.424 L 10.965 2.637 L 7.87 0.85 L 4.775 2.637 L 1.68 4.424 L 1.68 7.998 L 1.68 11.572 L 1.68 11.572 L 1.68 11.572 L 2.124 11.57 L 6.432 3.171 L 6.596 3.165 L 7.823 5.821 L 7.934 5.824 L 9.194 3.159 L 9.348 3.156 L 13.623 11.57 L 14.06 11.572 Z  M 12.841 12.275 L 10.965 13.358 L 7.87 15.145 L 4.775 13.358 L 2.933 12.295 L 6.473 5.233 L 6.56 5.23 L 7.428 7.175 L 7.426 7.274 L 5.161 11.887 L 5.223 12.018 L 6.595 12.018 L 9.183 12.018 L 10.512 12.018 L 10.574 11.907 L 8.33 7.275 L 8.328 7.177 L 9.22 5.194 L 9.22 5.194 L 9.322 5.193 L 12.841 12.275 Z  M 14.828 12.062 L 11.346 14.073 L 7.864 16.083 L 4.382 14.073 L 0.9 12.062 L 0.9 8.041 L 0.9 4.021 L 4.382 2.01 L 7.864 0 L 11.346 2.01 L 14.828 4.021 L 14.828 8.041 L 14.828 12.062 L 14.828 12.062 Z  M 6.544 11.118 L 7.832 8.393 L 7.924 8.392 L 9.214 11.122 L 9.156 11.237 L 6.609 11.237 L 6.544 11.118 L 6.544 11.118 Z " fill-rule="evenodd" fill="rgb(234,237,232)"/></g></g></svg>