<?xml version="1.0" encoding="UTF-8" standalone="no"?><!-- Generator: Gravit.io --><svg xmlns="http://www.w3.org/2000/svg" xmlns:xlink="http://www.w3.org/1999/xlink" style="isolation:isolate" viewBox="0 0 70 70" width="70pt" height="70pt"><defs><clipPath id="_clipPath_oZNhCk1sNDxDcXREweRRLjRu5Helm0yD"><rect width="70" height="70"/></clipPath></defs><g clip-path="url(#_clipPath_oZNhCk1sNDxDcXREweRRLjRu5Helm0yD)"><g style="isolation:isolate"><polygon points="65.499,52.362,35.267,69.816,5.036,52.362,5.036,17.454,35.267,0,65.499,17.454" fill="rgb(234,237,232)"/><polygon points="62.694,50.563,35.267,66.398,7.841,50.563,7.841,18.893,35.267,3.059,62.694,18.893" fill="rgb(202,210,197)"/></g><g style="isolation:isolate"><g><path d=" M 34.687 33.874 L 38.84 43.011 L 30.582 43.011 L 34.687 33.874 Z  M 36.788 25.616 L 46.951 47.506 L 43.677 47.506 L 27.407 47.506 L 22.423 47.506 L 32.586 25.616 L 28.188 15.795 L 10.794 55.373 L 7.031 51.61 L 28.188 7.049 L 34.687 21.121 L 41.234 7 L 63.906 51.61 L 60.095 55.373 L 41.185 15.844 L 36.788 25.616 Z " fill-rule="evenodd" fill="rgb(234,237,232)"/></g><mask id="_mask_abAWmliNu96soMkiTf64C3kPmlbvr6mR"><polygon points="34.469,32.124,40.399,45.147,28.539,45.147" fill="white" stroke="none"/></mask><polygon points="34.469,32.124,40.399,45.147,28.539,45.147" fill="rgb(202,210,197)"/><polygon points="34.469,32.124,40.399,45.147,28.539,45.147" fill="rgb(202,210,197)" mask="url(#_mask_abAWmliNu96soMkiTf64C3kPmlbvr6mR)" vector-effect="non-scaling-stroke" stroke-width="2" stroke="rgb(202,210,197)" stroke-linejoin="miter" stroke-linecap="square" stroke-miterlimit="3"/></g></g></svg>