<?xml version="1.0" encoding="UTF-8" standalone="no"?><!-- Generator: Gravit.io --><svg xmlns="http://www.w3.org/2000/svg" xmlns:xlink="http://www.w3.org/1999/xlink" style="isolation:isolate" viewBox="0 0 50 50" width="50pt" height="50pt"><defs><clipPath id="_clipPath_jR2SGkGasSeR6OeDTZFxY7SWWrQCNJsW"><rect width="50" height="50"/></clipPath></defs><g clip-path="url(#_clipPath_jR2SGkGasSeR6OeDTZFxY7SWWrQCNJsW)"><path d=" M 20 8 L 20 22 Q 7.07 37.977 3 43 Q 3 46.957 6 48 L 44 48 Q 47 46.479 47 43 Q 40.366 34.804 30 22 L 30 8 L 32 3 L 18 3 L 20 8 Z " fill="#CAD2C5" vector-effect="non-scaling-stroke" stroke-width="1" stroke="#1f2629" stroke-linejoin="miter" stroke-linecap="square" stroke-miterlimit="3"/><g style="isolation:isolate"><path d=" M 12 40 C 12 38.344 13.344 37 15 37 C 16.656 37 18 38.344 18 40 C 18 41.656 16.656 43 15 43 C 13.344 43 12 41.656 12 40 L 12 40 L 12 40 L 12 40 L 12 40 L 12 40 L 12 40 Z  M 18 32.621 C 18 31.726 18.726 31 19.621 31 C 20.516 31 21.242 31.726 21.242 32.621 C 21.242 33.516 20.516 34.242 19.621 34.242 C 18.726 34.242 18 33.516 18 32.621 L 18 32.621 L 18 32.621 L 18 32.621 L 18 32.621 Z  M 31.43 36.285 C 31.43 35.024 32.454 34 33.715 34 C 34.976 34 36 35.024 36 36.285 C 36 37.546 34.976 38.57 33.715 38.57 C 32.454 38.57 31.43 37.546 31.43 36.285 L 31.43 36.285 L 31.43 36.285 Z  M 20.923 24.077 Q 11.244 36.195 5 44 Q 5 46.002 7 46 L 43 46 Q 45 45.715 45 44 Q 40.031 37.352 31 26.8 Q 30.19 32.104 28 35 C 25.81 37.896 22.547 39.887 21 38 C 19.283 35.906 26.058 31.929 25 28 Q 23.942 24.071 20.923 24.077 L 20.923 24.077 L 20.923 24.077 L 20.923 24.077 L 20.923 24.077 L 20.923 24.077 L 20.923 24.077 Z  M 38.973 42.271 C 38.973 41.46 39.632 40.801 40.443 40.801 C 41.255 40.801 41.914 41.46 41.914 42.271 C 41.914 43.083 41.255 43.742 40.443 43.742 C 39.632 43.742 38.973 43.083 38.973 42.271 Z " fill-rule="evenodd" fill="#1f2629" vector-effect="non-scaling-stroke" stroke-width="1" stroke="#1f2629" stroke-linejoin="miter" stroke-linecap="square" stroke-miterlimit="3"/></g></g></svg>